<svg width="87" height="30" viewBox="0 0 87 30" fill="none" xmlns="http://www.w3.org/2000/svg">
<path d="M4.83881 0V17.4014H0V0H4.83881Z" fill="black"/>
<path d="M27.9125 0V17.4014H23.0736V7.79978L19.7902 17.4014H15.7414L12.4332 7.72574V17.4014H7.59439V0H13.4454L17.8151 11.3048L22.0861 0H27.9125Z" fill="black"/>
<path d="M35.5057 3.87521V6.71374H41.0605V10.3915H35.5057V13.5262H41.8011V17.4014H30.6669V0H41.8011V3.87521H35.5057Z" fill="black"/>
<path d="M51.08 0C52.9069 0 54.5034 0.370243 55.8695 1.11073C57.252 1.83476 58.3136 2.85498 59.0542 4.1714C59.7948 5.48782 60.1651 6.99348 60.1651 8.68837C60.1651 10.3668 59.7866 11.8642 59.0295 13.1807C58.2889 14.4971 57.2273 15.5337 55.8448 16.2907C54.4787 17.0312 52.8905 17.4014 51.08 17.4014H44.1921V0H51.08ZM50.7097 13.1313C52.1252 13.1313 53.2361 12.7446 54.0426 11.9712C54.849 11.1978 55.2523 10.1035 55.2523 8.68837C55.2523 7.25676 54.849 6.15426 54.0426 5.38086C53.2361 4.59101 52.1252 4.19609 50.7097 4.19609H49.0309V13.1313H50.7097Z" fill="black"/>
<path d="M67.1852 0V17.4014H62.3464V0H67.1852Z" fill="black"/>
<path d="M80.9515 14.5629H74.7796L73.8414 17.4014H68.7557L75.1005 0H80.6799L87 17.4014H81.8896L80.9515 14.5629ZM79.7418 10.8605L77.8655 5.23277L76.0139 10.8605H79.7418Z" fill="black"/>
<path d="M3.4385 29.9999C2.7943 29.9999 2.21704 29.8956 1.7067 29.687C1.19636 29.4784 0.78642 29.1697 0.476872 28.7609C0.17569 28.352 0.0167323 27.8597 0 27.284H2.28396C2.31743 27.6094 2.43037 27.8597 2.62279 28.0349C2.81522 28.2018 3.0662 28.2853 3.37575 28.2853C3.69366 28.2853 3.94465 28.2143 4.12871 28.0725C4.31276 27.9223 4.40479 27.7179 4.40479 27.4592C4.40479 27.2423 4.32949 27.0629 4.1789 26.921C4.03668 26.7792 3.8568 26.6624 3.63928 26.5706C3.43013 26.4788 3.12895 26.3745 2.73574 26.2577C2.16684 26.0824 1.70252 25.9072 1.34277 25.732C0.983025 25.5568 0.673477 25.2981 0.414125 24.956C0.154774 24.6139 0.0250985 24.1675 0.0250985 23.6168C0.0250985 22.7991 0.322098 22.1608 0.916096 21.7019C1.51009 21.2346 2.28396 21.001 3.23771 21.001C4.20818 21.001 4.99042 21.2346 5.58442 21.7019C6.17842 22.1608 6.49633 22.8033 6.53816 23.6293H4.21655C4.19982 23.3456 4.09524 23.1245 3.90282 22.966C3.7104 22.7991 3.46359 22.7157 3.16241 22.7157C2.90306 22.7157 2.69391 22.7866 2.53495 22.9284C2.37599 23.0619 2.29651 23.258 2.29651 23.5167C2.29651 23.8004 2.43037 24.0215 2.69809 24.18C2.96581 24.3386 3.38412 24.5096 3.95302 24.6932C4.52191 24.8851 4.98205 25.0687 5.33343 25.2439C5.69318 25.4191 6.00273 25.6736 6.26208 26.0074C6.52143 26.3411 6.65111 26.7708 6.65111 27.2965C6.65111 27.7971 6.52143 28.2519 6.26208 28.6607C6.01109 29.0696 5.64298 29.395 5.15774 29.637C4.67251 29.879 4.09942 29.9999 3.4385 29.9999Z" fill="black"/>
<path d="M10.1176 28.2602H12.9287V29.9123H7.97172V21.1261H10.1176V28.2602Z" fill="black"/>
<path d="M19.861 21.1261V22.8408H17.5268V29.9123H15.3809V22.8408H13.0467V21.1261H19.861Z" fill="black"/>
<path d="M28.9046 29.9123H26.7587L23.1696 24.4929V29.9123H21.0237V21.1261H23.1696L26.7587 26.5706V21.1261H28.9046V29.9123Z" fill="black"/>
<path d="M33.9048 29.9999C33.2606 29.9999 32.6834 29.8956 32.173 29.687C31.6627 29.4784 31.2527 29.1697 30.9432 28.7609C30.642 28.352 30.4831 27.8597 30.4663 27.284H32.7503C32.7838 27.6094 32.8967 27.8597 33.0891 28.0349C33.2815 28.2018 33.5325 28.2853 33.8421 28.2853C34.16 28.2853 34.411 28.2143 34.595 28.0725C34.7791 27.9223 34.8711 27.7179 34.8711 27.4592C34.8711 27.2423 34.7958 27.0629 34.6452 26.921C34.503 26.7792 34.3231 26.6624 34.1056 26.5706C33.8965 26.4788 33.5953 26.3745 33.2021 26.2577C32.6332 26.0824 32.1688 25.9072 31.8091 25.732C31.4493 25.5568 31.1398 25.2981 30.8805 24.956C30.6211 24.6139 30.4914 24.1675 30.4914 23.6168C30.4914 22.7991 30.7884 22.1608 31.3824 21.7019C31.9764 21.2346 32.7503 21.001 33.704 21.001C34.6745 21.001 35.4567 21.2346 36.0507 21.7019C36.6447 22.1608 36.9627 22.8033 37.0045 23.6293H34.6829C34.6661 23.3456 34.5616 23.1245 34.3691 22.966C34.1767 22.7991 33.9299 22.7157 33.6287 22.7157C33.3694 22.7157 33.1602 22.7866 33.0013 22.9284C32.8423 23.0619 32.7628 23.258 32.7628 23.5167C32.7628 23.8004 32.8967 24.0215 33.1644 24.18C33.4321 24.3386 33.8504 24.5096 34.4193 24.6932C34.9882 24.8851 35.4484 25.0687 35.7998 25.2439C36.1595 25.4191 36.4691 25.6736 36.7284 26.0074C36.9878 26.3411 37.1174 26.7708 37.1174 27.2965C37.1174 27.7971 36.9878 28.2519 36.7284 28.6607C36.4774 29.0696 36.1093 29.395 35.6241 29.637C35.1388 29.879 34.5657 29.9999 33.9048 29.9999Z" fill="black"/>
<path fill-rule="evenodd" clip-rule="evenodd" d="M84.7119 27.717L86.9947 27.717L86.9947 25.181L84.7119 25.181L84.7119 22.899L82.1754 22.899L82.1754 25.181L79.8925 25.181L79.8925 27.717L82.1754 27.717L82.1754 29.9999L84.7119 29.9999L84.7119 27.717Z" fill="#B3CC19"/>
</svg>
